<svg xmlns="http://www.w3.org/2000/svg" version="1.1" xmlns:xlink="http://www.w3.org/1999/xlink" xmlns:svgjs="http://svgjs.dev/svgjs" viewBox="0 0 5.304623479937417 4.167411258377317"><g transform="matrix(0.840755206850557,0,0,0.840755206850557,2.652241006998746,3.6614143158528414)"><g transform="matrix(1,0,0,1,0,0)"><path d=" M -2.2288840354900765 -1.7844692903376655 L -2.1899451578289146 -1.9063289175746496 Q -2.1813251009420926 -1.9333054762759667 -2.170250105049192 -1.9615480006196626 Q -2.1591751091562914 -1.9897905249633587 -2.1443599605452635 -2.015300115029721 Q -2.1295448119342355 -2.0408097050960836 -2.109807479832767 -2.0616708457953226 Q -2.0900701477312986 -2.082531986494561 -2.064199729262573 -2.0945132213664346 Q -2.0383293107938467 -2.1064944562383086 -2.0053020208908476 -2.107987137568787 Q -1.9722747309878483 -2.109479818899265 -1.9308796667737584 -2.0962524902281072 L -1.8922752810460115 -2.083916891579724 Q -1.8606475915341223 -2.0738106179882774 -1.8370342684878804 -2.0562694776913024 Q -1.8134209454416381 -2.0387283373943275 -1.7979444198704488 -2.017379676135381 Q -1.7824678942992593 -1.9960310148764342 -1.7753056599780899 -1.9727256609449095 Q -1.7681434256569202 -1.9494203070133849 -1.7698830266762338 -1.9279342278233011 L -1.7661621220277761 -1.9267452544596018 Q -1.7365895690147295 -1.9823963173332286 -1.6816549458668255 -1.9979054981913285 Q -1.6267203227189213 -2.0134146790494283 -1.5560231343982283 -1.9908241851391362 L -1.5155582963462526 -1.977894099808903 Q -1.4723027798079338 -1.964072284455895 -1.4434892779999964 -1.944356881867545 Q -1.414675776192059 -1.9246414792791948 -1.3976167935678958 -1.90022414426265 Q -1.3805578109437326 -1.875806809246105 -1.3737190106245447 -1.8474787703278523 Q -1.3668802103053568 -1.8191507314095996 -1.3678066532850652 -1.788177954232018 Q -1.368733096264774 -1.7572051770544364 -1.3759647564998112 -1.7241463336034843 Q -1.3831964167348485 -1.6910874901525321 -1.3940457986786075 -1.6571342352353573 L -1.4344708930443937 -1.5306234771878011 L -2.2288840354900765 -1.7844692903376655 M -1.843705385416685 -1.8172212258710008 Q -1.8359770585526376 -1.841407106085975 -1.835400240235967 -1.8632647394522146 Q -1.8348234219192967 -1.8851223728184545 -1.8426159576182075 -1.9032467960579538 Q -1.8504084933171183 -1.921371219297453 -1.8677235416994185 -1.9353620061295507 Q -1.8850385900817188 -1.9493527929616485 -1.9129453749451502 -1.9582700931893955 L -1.9455032906191536 -1.968673610121767 Q -1.973410075482585 -1.9775909103495142 -1.9965887372567654 -1.9788461502181005 Q -2.0197673990309455 -1.9801013900866868 -2.038738113562493 -1.9720666738124124 Q -2.0577088280940403 -1.964031957538138 -2.071996858267063 -1.9457866829937234 Q -2.086284888440086 -1.9275414084493088 -2.095796675349683 -1.8977741712616485 L -2.103227758872805 -1.874518517208789 L -1.8511364689398073 -1.7939655718181413 L -1.843705385416685 -1.8172212258710008 M -1.4694433397230047 -1.709932468457801 Q -1.461715012858957 -1.734118348672775 -1.4616776184585751 -1.7558920471689485 Q -1.4616402240581932 -1.7776657456651224 -1.4703629859192184 -1.7960874122455464 Q -1.4790857477802437 -1.8145090788259706 -1.4970984657841295 -1.8287227981637622 Q -1.5151111837880156 -1.8429365175015535 -1.5430179686514471 -1.8518538177293005 L -1.6048780084320535 -1.8716204999008064 Q -1.632784793295485 -1.8805378001285533 -1.656196011610194 -1.8818673508323709 Q -1.6796072299249025 -1.8831969015361885 -1.6983453879159214 -1.8750878744266828 Q -1.7170835459069405 -1.8669788473171773 -1.7312972652447318 -1.8489661293132913 Q -1.7455109845825234 -1.8309534113094053 -1.75502277149212 -1.801186174121745 L -1.7660207751063415 -1.766767806123513 L -1.4804413433372259 -1.6755141004595688 L -1.4694433397230047 -1.709932468457801 M -1.1349174311946262 -2.1515965294047974 Q -1.1472245476932157 -2.1358067695915555 -1.1641361338082978 -2.119272325352658 Q -1.1810477199233802 -2.102737881113761 -1.2032433158139115 -2.0909410697783466 Q -1.225438911704443 -2.079144258442932 -1.2533234317166007 -2.073948390962924 Q -1.2812079517287582 -2.068752523482916 -1.3155260802881972 -2.074762069474807 Q -1.3498442088476361 -2.080771615466698 -1.3914709189134087 -2.1008353491216902 Q -1.4330976289791812 -2.120899082776683 -1.4823924888839368 -2.1593213001381333 L -1.7153877251525078 -2.3409263118856125 Q -1.7650677011502691 -2.379648702820199 -1.7941522654110145 -2.4150094646687945 Q -1.8232368296717598 -2.4503702265173897 -1.8371006839979935 -2.482225022000611 Q -1.8509645383242272 -2.5140798174838324 -1.8521562833340153 -2.5419387897356334 Q -1.8533480283438033 -2.569797761987434 -1.8465995474334427 -2.5939441610813727 Q -1.839851066523082 -2.618090560175312 -1.82805360514371 -2.6379920579854073 Q -1.8162561437643379 -2.6578935557955026 -1.8042492008388846 -2.6732981995157385 Q -1.7928426050597042 -2.687932611049963 -1.7767663953973325 -2.7041895547224875 Q -1.7606901857349606 -2.7204464983950123 -1.7396074668635122 -2.7328011856167644 Q -1.7185247479920636 -2.745155872838517 -1.6912603733793494 -2.7511446455113004 Q -1.6639959987666357 -2.7571334181840843 -1.6297203414671315 -2.751466517025264 Q -1.5954446841676275 -2.7457996158664444 -1.5536678873152867 -2.725928440257955 Q -1.511891090462946 -2.7060572646494654 -1.4614408822791727 -2.6667345265686064 L -1.2284456460106017 -2.4851295148211268 Q -1.179535902198852 -2.447007471032813 -1.150601424724675 -2.4114541511377148 Q -1.1216669472504979 -2.3759008312426166 -1.1074179768312582 -2.3437458621862586 Q -1.0931690064120185 -2.3115908931299014 -1.091699760835858 -2.2828965444253897 Q -1.0902305152596974 -2.2542021957208784 -1.0959085904109098 -2.229840565573673 Q -1.1015866655621223 -2.2054789354264672 -1.1126988372753521 -2.1856623801362414 Q -1.123811008988582 -2.1658458248460155 -1.1349174311946262 -2.1515965294047974 M -1.2100150693307772 -2.2101303761663815 Q -1.1986084735515967 -2.224764787700606 -1.195060035926288 -2.2396428528020467 Q -1.1915115983009792 -2.254520917903487 -1.198282102174146 -2.2712511199644587 Q -1.2050526060473128 -2.2879813220254306 -1.2224195519853276 -2.307399037498644 Q -1.2397864979233424 -2.3268167529718573 -1.2705957853638146 -2.3508306388227638 L -1.5698309896294007 -2.5840655051496917 Q -1.601410509255885 -2.608679738146871 -1.6254435433160046 -2.621530681785813 Q -1.6494765773761244 -2.634381625424755 -1.6679311775948442 -2.637312792404213 Q -1.686385777813564 -2.6402439593836706 -1.700332349950032 -2.633470580756911 Q -1.7142789220865002 -2.626697202130152 -1.7256855178656807 -2.6120627905959273 Q -1.7373922872179977 -2.597043262968697 -1.7407056955368683 -2.581672466247617 Q -1.7440191038557393 -2.5663016695265375 -1.736821012629632 -2.5489286490593583 Q -1.7296229214035246 -2.531555628592179 -1.7112931852329951 -2.511387479186125 Q -1.6929634490624654 -2.491219329780071 -1.6613839294359813 -2.4666050967828914 L -1.3621487251703952 -2.2333702304559635 Q -1.331339437729923 -2.209356344605057 -1.3082691939023179 -2.1972558348989555 Q -1.285198950074713 -2.1851553251928544 -1.2671719372089338 -2.182866976619604 Q -1.2491449243431547 -2.1805786280463537 -1.2354333815131244 -2.1878447382927524 Q -1.2217218386830941 -2.1951108485391515 -1.2100150693307772 -2.2101303761663815 M -0.7595669015932458 -2.488790471873574 Q -0.7765663524117916 -2.4782169056191083 -0.798144445581163 -2.468533131231455 Q -0.8197225387505342 -2.4588493568438015 -0.8446254431362764 -2.455435475215255 Q -0.8695283475220186 -2.4520215935867085 -0.8974931868245468 -2.456766196621947 Q -0.9254580261270751 -2.4615107996571854 -0.9555950084795775 -2.478992529707034 Q -0.98573199083208 -2.496474259756883 -1.01787940290303 -2.529668842089229 Q -1.0500268149739802 -2.562863424421575 -1.0830369730367013 -2.615934880635572 L -1.239061548255031 -2.866780435397041 Q -1.2723295981776168 -2.9202665123627094 -1.2874269779459921 -2.9634910942679165 Q -1.3025243577143675 -3.0067156761731235 -1.3045454933990874 -3.0413977963880243 Q -1.3065666290838074 -3.076079916602925 -1.2980726252010872 -3.1026391803189117 Q -1.289578621318367 -3.129198444034898 -1.2749130268813218 -3.149533412036087 Q -1.2602474324442765 -3.1698683800372756 -1.2423076082748898 -3.184477021960962 Q -1.224367784105503 -3.1990856638846483 -1.207782954038629 -3.209401338279249 Q -1.1920273654750986 -3.219201228954119 -1.1713290952931001 -3.228912786303647 Q -1.1506308251111015 -3.2386243436531745 -1.1265799607508578 -3.2429458312309682 Q -1.1025290963906142 -3.2472673188087615 -1.0748727304319798 -3.2434809032067995 Q -1.0472163644733459 -3.2396944876048375 -1.01700101767494 -3.222549013860757 Q -0.9867856708765341 -3.2054035401166763 -0.954430948429748 -3.172337903714263 Q -0.9220762259829618 -3.1392722673118496 -0.8882923923406458 -3.084956948842837 L -0.7322678171223163 -2.834111394081368 Q -0.6995155509194603 -2.781454558619043 -0.6846254815269209 -2.7381010307839038 Q -0.6697354121343816 -2.6947475029487644 -0.6674563845897965 -2.6596507619821916 Q -0.6651773570452115 -2.624554021015619 -0.673699143889806 -2.59711493431226 Q -0.6822209307344005 -2.5696758476089006 -0.6959561207000439 -2.548769529964233 Q -0.7096913106656872 -2.5278632123195655 -0.7269586222235374 -2.5130978415040723 Q -0.7442259337813873 -2.4983324706885788 -0.7595669015932458 -2.488790471873574 M -0.8098558142669222 -2.5696415184495844 Q -0.794100225703392 -2.579441409124455 -0.7856361284589893 -2.5921813969023413 Q -0.7771720312145867 -2.604921384680228 -0.7777540868243378 -2.62296024814123 Q -0.7783361424340888 -2.6409991116022318 -0.7879365679361191 -2.6652166737337217 Q -0.7975369934381493 -2.6894342358652112 -0.81816834222735 -2.7226038959989594 L -1.0185503173424608 -3.0447642200479867 Q -1.0396974498513916 -3.0787631216850784 -1.0578203992848494 -3.0991172903583126 Q -1.0759433487183074 -3.119471459031547 -1.0922532099297144 -3.128590254805051 Q -1.1085630711411214 -3.137709050578555 -1.1239902486018791 -3.1361638230958087 Q -1.139417426062637 -3.1346185956130617 -1.1551730146261674 -3.1248187049381917 Q -1.1713432239413695 -3.1147609224034563 -1.179756739701743 -3.101477367943965 Q -1.1881702554621165 -3.088193813484474 -1.1874086724384039 -3.069404072966032 Q -1.1866470894146914 -3.05061433244759 -1.1764019342629985 -3.02536021843692 Q -1.1661567791113057 -3.000106104426251 -1.1450096466023751 -2.9661072027891593 L -0.9446276714872642 -2.643946878740132 Q -0.9239963226980636 -2.610777218606384 -0.9065181029142682 -2.5914596018123293 Q -0.8890398831304727 -2.5721419850182747 -0.8729095493330272 -2.563774066302211 Q -0.8567792155355819 -2.555406147586147 -0.8414026195588531 -2.5574949417504977 Q -0.8260260235821244 -2.559583735914849 -0.8098558142669222 -2.5696415184495844 M -0.6473490024303866 -3.4599010651312123 L -0.5236817535888526 -3.4863541985690114 L -0.4474885584359641 -3.130154323527373 L -0.44366872063390894 -3.1309714087300846 L -0.37852791711075856 -3.5174034362720654 L -0.2553381479944814 -3.5437544340595255 L -0.3310958014077214 -3.12758840951689 L -0.06322370738097705 -2.7319980823833028 L -0.1954855912771351 -2.703706507239402 L -0.42845050873339907 -3.0598269296668086 L -0.43227034653545415 -3.0590098444640965 L -0.34923406280985314 -2.6708188278302463 L -0.4729013116513872 -2.644365694392447 L -0.6473490024303866 -3.4599010651312123 M 0.0007212006272011157 -2.8933760406026785 Q 0.0039395385106406056 -2.9200379704475012 0.00981145224830031 -2.942199071202808 Q 0.01568336598596 -2.9643601719581154 0.025145099325749584 -2.9897766413969467 L 0.122582333849556 -2.978015079313831 L 0.1177255694072746 -2.93777980336619 Q 0.11368801824441416 -2.904331200469958 0.1147071908963905 -2.878141415855688 Q 0.11572636354836688 -2.8519516312414184 0.12304342353433959 -2.8331167580039076 Q 0.13036048352031232 -2.814281884766397 0.14503272841327788 -2.8034120359783783 Q 0.15970497330624345 -2.79254218719036 0.18248880426454644 -2.7897919711808754 Q 0.21836121896485325 -2.7854618438467935 0.239636818023533 -2.802812625324269 Q 0.2609124170822127 -2.820163406801745 0.26547660535327233 -2.857974870945312 Q 0.2678172147230464 -2.8773653653779103 0.2671112820857501 -2.893926738253555 Q 0.26640534944845373 -2.9104881111292 0.26179206030751545 -2.9272752246983926 Q 0.25717877116657717 -2.944062338267585 0.24816504291775213 -2.963102014824951 Q 0.239151314668927 -2.982141691382317 0.22433305522058453 -3.006062546051787 L 0.11223060799298379 -3.1774703771193638 Q 0.08271111956478747 -3.2262816111799335 0.06927656189485124 -3.273888986051662 Q 0.055842004224915046 -3.32149636092339 0.062044619054816605 -3.3728811711697757 Q 0.06701841396558672 -3.414085971839047 0.08401919815853226 -3.4469534457494335 Q 0.10101998235147777 -3.4798209196598204 0.12827163495580987 -3.5018604195295726 Q 0.155523287560142 -3.5238999193993252 0.19282100525600546 -3.5334147769655915 Q 0.2301187229518689 -3.542929634531858 0.2752016225076599 -3.537487717747133 Q 0.32997976927975015 -3.530875496277521 0.36470684002546006 -3.5109452005459936 Q 0.39943391077116996 -3.491014904814466 0.41820542482713663 -3.463174076511092 Q 0.4369769388831033 -3.4353332482077183 0.44217080994941915 -3.4029835441016334 Q 0.447364681015735 -3.370633839995548 0.443561190789852 -3.339124286542576 Q 0.4403428529064125 -3.312462356697753 0.43350141444712287 -3.290418286410935 Q 0.42665997598783323 -3.268374216124116 0.4180507369011849 -3.2418711914951666 L 0.3210982647381935 -3.2535742383440374 L 0.32583799871198615 -3.292839989570049 Q 0.33379607056921834 -3.358767670640883 0.3191326929801507 -3.3961950359354973 Q 0.304469315391083 -3.4336224012301115 0.2618102276393668 -3.4387717418436146 Q 0.2264225752998749 -3.4430433539434526 0.20660126332364012 -3.4255170267632433 Q 0.1867799513474053 -3.4079906995830345 0.1828009154187892 -3.375026859047617 Q 0.18069436698599245 -3.357575414058279 0.18166361817738844 -3.3431954718063013 Q 0.1826328693687844 -3.3288155295543236 0.1862892509183548 -3.3163244417547912 Q 0.18994563246792515 -3.3038333539552593 0.19587121749252936 -3.29180609114285 Q 0.20179680251713358 -3.2797788283304405 0.20954440651650888 -3.266547979859424 L 0.33415833185686605 -3.0724813950152288 Q 0.36764771537954666 -3.015813573199991 0.38321350868233583 -2.9654898103529663 Q 0.3987793019851251 -2.9151660475059415 0.3923426262182461 -2.861842187816296 Q 0.3870177399020098 -2.817728812982135 0.36893040051894577 -2.784008844818607 Q 0.3508430611358816 -2.7502888766550795 0.3221663790662268 -2.7286673036684674 Q 0.293489696996572 -2.7070457306818554 0.25552335099373047 -2.698103408327771 Q 0.2175570049908889 -2.689161085973686 0.1719893430742829 -2.6946615179926554 Q 0.11575690921974785 -2.7014492851650003 0.08048656087897862 -2.720953333769957 Q 0.04521621253820936 -2.7404573823749137 0.026143802067590857 -2.7678427059345947 Q 0.0070713915969723845 -2.7952280294942757 0.0019067781477787038 -2.8278201147807684 Q -0.003257835301414977 -2.860412200067261 0.0007212006272011157 -2.8933760406026785 M 0.8592209171870115 -3.4064175696499923 L 0.9636427286226417 -3.3451005117821833 L 0.7569060536045722 -2.8821377252645695 L 0.7027934431308676 -2.77744910305381 L 0.7133198354126852 -2.7712679480268134 L 0.7904288924958759 -2.8794401315357985 L 1.1156438331720873 -3.255844633192349 L 1.2028023612655363 -3.204664669568815 L 1.029167469447498 -2.73925153552351 L 0.9705848627803061 -2.62020051916701 L 0.9815323107533963 -2.6137721179389333 L 1.0461713135089186 -2.712279585122696 L 1.3455402406069823 -3.1208482074027377 L 1.450383107733885 -3.059283903333849 L 0.9274542860752841 -2.3992126246981638 L 0.8167166392705635 -2.464238375582171 L 0.9603369178876894 -2.8447868124693216 L 1.0300773612572054 -3.0059825271011906 L 1.0216562474317517 -3.010927451122788 L 0.9152839589215103 -2.871242155984868 L 0.6499785855265735 -2.562147871209801 L 0.540504105795671 -2.6264318834905684 L 0.8592209171870115 -3.4064175696499923 M 1.8041013597957014 -2.6634574250919156 L 1.88949121696537 -2.5456393628472886 L 1.3047594872733992 -1.9312890819241475 L 1.2296851833188585 -2.0348740896694233 L 1.337198618754702 -2.141138335372162 L 1.247797157556928 -2.2644914743665363 L 1.113921752793536 -2.194600590162139 L 1.0385609056941303 -2.2985809605323966 L 1.8041013597957014 -2.6634574250919156 M 1.405698036280246 -2.2088751273702294 L 1.7077664527561427 -2.5001668586478916 L 1.7046144781626313 -2.504515847522693 L 1.3334891637743518 -2.308506508865686 L 1.405698036280246 -2.2088751273702294 M 2.1307509458709206 -2.097196579173601 L 2.1679205705005224 -1.9763174010261366 Q 2.174952661646663 -1.9534483673225624 2.1812479000218294 -1.9254997370814044 Q 2.187543138396996 -1.8975511068402466 2.1882377970896547 -1.8678803318286055 Q 2.188932455782313 -1.838209556816964 2.180885554181153 -1.8078941805758704 Q 2.1728386525799923 -1.7775788043347767 2.151563333324458 -1.749581319689892 Q 2.130288014068924 -1.721583835045007 2.092876654034476 -1.6970535415694652 Q 2.0554652940000278 -1.6725232480939236 1.996659207333694 -1.6544407280038471 L 1.968656308921154 -1.6458300041514298 Q 1.9047163575458543 -1.6261688513550767 1.8558391141166133 -1.6231442269731433 Q 1.8069618706873722 -1.62011960259121 1.7703283544427357 -1.6287779342895983 Q 1.7336948381980994 -1.6374362659879869 1.7076353679497478 -1.6557316045571386 Q 1.6815758977013961 -1.6740269431262906 1.6640433211802923 -1.6969876268416475 Q 1.6465107446591885 -1.7199483105570044 1.6353686657034703 -1.745384878144801 Q 1.6242265867477519 -1.7708214457325977 1.6170509835374043 -1.7941571944097143 L 1.6134631819322303 -1.8058250687482726 L 1.370771395690217 -1.7311987953606554 L 1.3336017710606152 -1.8520779735081196 L 2.1307509458709206 -2.097196579173601 M 1.704004683739964 -1.827025066291544 Q 1.7140505282344511 -1.7943550181435808 1.7305067642740029 -1.7748946967297912 Q 1.7469630003135546 -1.7554343753160018 1.7713551954925442 -1.748375773363048 Q 1.795747390671534 -1.7413171714100941 1.8295112671617708 -1.7453138106389914 Q 1.8632751436520074 -1.7493104498678886 1.9080797811120715 -1.7630876080317566 L 1.979953887037591 -1.7851884659196278 Q 2.015424225026808 -1.7960953827993564 2.0397482733521315 -1.8091941670718081 Q 2.0640723216774544 -1.8222929513442598 2.0767839668950803 -1.8407607624016669 Q 2.0894956121127057 -1.8592285734590739 2.0907745450677626 -1.8841423533127275 Q 2.0920534780228195 -1.9090561331663813 2.0815770973357117 -1.9431263262349716 L 2.079711440501021 -1.9491936208910219 L 1.7021390269052736 -1.8330923609475944 L 1.704004683739964 -1.827025066291544" fill="#01191d" fill-rule="nonzero"></path></g><g transform="matrix(1,0,0,1,0,0)"><g clip-path="url(#SvgjsClipPath93441)"><g clip-path="url(#SvgjsClipPath9343922b37688-4d03-491e-acd3-ba29267fc866)"><path d=" M -0.11951561401419508 -1.3969772675417995 C -0.028376475318222294 -1.2995884404561993 0.07415247533143166 -1.3524966199528645 0.18342138720061818 -1.362916207779998 C 0.18342138720061818 -1.362916207779998 0.20045191708151922 -1.4462161419641255 0.20045191708151922 -1.4462161419641255 C 0.1845103089596699 -1.4348779376767498 -0.1439828086097561 -1.4503912021682615 -0.11951561401419508 -1.3969772675417995 Z" fill="#c2c7cb" transform="matrix(1,0,0,1,0,0)" fill-rule="nonzero"></path></g><g clip-path="url(#SvgjsClipPath9343922b37688-4d03-491e-acd3-ba29267fc866)"><path d=" M 0.8622015398203925 -1.0405489202010656 L 0.8920204494118608 -1.0192452755500478 C 0.8655921634966807 -0.9662803276204457 0.8476378563889068 -0.9012649896084488 0.8551106464699806 -0.8417407072913852 C 0.8551106464699806 -0.8417407072913852 0.8934396602352691 -0.762218454280839 0.8934396602352691 -0.762218454280839 L 0.159284481669414 -0.30497453081180215 L 0.09964150171984676 -0.3447382377003907 L 0.08828781513257955 -0.5449759829667411 C 0.07878684376568901 -0.641090100694589 0.7975371339392744 -0.9935498184964096 0.8622015398203925 -1.0405489202010656 Z" fill="#c2c7cb" transform="matrix(1,0,0,1,0,0)" fill-rule="nonzero"></path></g><g clip-path="url(#SvgjsClipPath9343922b37688-4d03-491e-acd3-ba29267fc866)"><path d=" M -0.7680175488123796 -1.1072879542676748 C -0.8976663281057108 -1.0852721238216376 -0.87785930577756 -0.9842243131949588 -0.9242236331866551 -0.8886004682970154 C -0.9242236331866551 -0.8886004682970154 -0.873101078944169 -0.729561123042554 -0.873101078944169 -0.729561123042554 C -0.8253433445448184 -0.729777875241038 0.0853152135533678 -0.16685693347769615 0.12938299981185641 -0.2581044482729107 C 0.05610011365767675 -0.3963149394063674 0.06386706743669379 -0.4572635933134701 0.1067478773701499 -0.6017598982029688 C 0.11392134298665069 -0.6514838846885687 0.8895226383626619 -1.0208863993385706 0.9189802942899897 -1.0703575082592724 C 0.7663609427239647 -1.1780265824729803 0.5713820186541715 -1.0176660809610913 0.45038268423368544 -0.9255051104722642 C 0.29607576197946217 -0.9155448308752525 0.20902395045490574 -0.9434903821798217 0.0868634435425405 -1.0363016092641013 C 0.0026913397978451936 -1.0096875357502206 -0.14175851819197804 -0.9239104335834163 -0.20565913061177055 -0.8630185481092496 C -0.37050433832563 -0.9295047046109612 -0.6064855532753497 -1.0307899105026461 -0.7680175488123796 -1.1072879542676748 Z" fill="#0f7ad3" transform="matrix(1,0,0,1,0,0)" fill-rule="nonzero"></path></g><g clip-path="url(#SvgjsClipPath9343922b37688-4d03-491e-acd3-ba29267fc866)"><path d=" M -0.10789872832876823 -2.0480750679551636 C 0.07082894162134112 -2.1485913196188933 0.31381847765538284 -2.014204956558693 0.32721582782835823 -1.810545623016271 C 0.3440296055107749 -1.6390275440490765 0.22836134301967437 -1.6054774001837018 0.18362781786584137 -1.4774232977792188 C 0.17131422868528678 -1.4726134632795218 0.15803557614481456 -1.4714419692543812 0.14528332180066117 -1.468133917844182 C 0.150764055962333 -1.6230910966938579 0.34765246368543956 -1.6895669316623079 0.22449592881337266 -1.8654406976657087 C 0.23759911528840505 -1.8231224112949853 0.23378530874840953 -1.7763761871552273 0.2183030088566814 -1.7351829479099694 C 0.21422600321852647 -1.7345997812807141 0.21176431753574165 -1.7321948640308658 0.21598582463955307 -1.7295061046163358 C 0.19675164740739592 -1.6763502083214026 0.14972674186958723 -1.6406738286042306 0.12369583498496162 -1.591538169514516 C 0.12246241176025408 -1.5914814010815799 0.1199439576445328 -1.59139366804886 0.11867956982004191 -1.5913368996159236 L 0.12313847218885943 -1.5910117713181973 C 0.10132391164141452 -1.550845524632424 0.09220999777181749 -1.5051417753520426 0.08828265436594906 -1.4599953888677635 C 0.04893696957443738 -1.4568576427563733 0.009359050284549753 -1.456506710625494 -0.029955669907178684 -1.4602276233661393 C -0.0378155174855459 -1.5606664635304102 -0.07520527172406921 -1.6126250619670497 -0.13509080770527349 -1.6882819007712944 C -0.21476788371473687 -1.8169759382379689 -0.11057716621003733 -1.9768771315197369 0.03079171410133197 -1.993283208638338 C -0.1407728117655378 -2.061157611363674 -0.2682798729071797 -1.8463510218992079 -0.2042089551885784 -1.6986498809321218 C -0.16207645641655577 -1.6043936391912812 -0.09892931592482734 -1.590820822952866 -0.08802977680105084 -1.4678965225791754 C -0.10128262550837008 -1.4719735282173305 -0.11494317477950489 -1.474461017733268 -0.12822698808660749 -1.4784812549384871 C -0.14422536464139313 -1.545963439399899 -0.2024904199005968 -1.5891384130312984 -0.23532321720432148 -1.6474344328902852 C -0.31447389501746603 -1.7872034755461756 -0.2510841984941006 -1.978126037044336 -0.10789872832876823 -2.0480750679551636 Z" fill="#ffcc00" transform="matrix(1,0,0,1,0,0)" fill-rule="nonzero"></path></g><g clip-path="url(#SvgjsClipPath9343922b37688-4d03-491e-acd3-ba29267fc866)"><path d=" M 0.007315386698841575 -2.326204263976798 C 0.009028761220193027 -2.351827470297608 0.05032521579806237 -2.348968405584269 0.04847766134431619 -2.3230665178654077 C 0.04812672921343719 -2.2948371243961567 0.049060827973571475 -2.266602570160275 0.04847766134431619 -2.238373176691024 C 0.03973532267212032 -2.221992903405576 0.01731695242889808 -2.2191389994588677 0.00839914769126271 -2.23690235820131 C 0.009281638785091362 -2.237609383229699 0.011041460206117626 -2.2390440763529993 0.011887825933532326 -2.239751101381388 C 0.01068536730860814 -2.2403652326104266 0.008223681625823431 -2.241593495068504 0.007021223000899135 -2.2422385908973257 C 0.006025195041197695 -2.270209946035048 0.007403119731561603 -2.2982071050059227 0.007315386698841575 -2.326204263976798 Z" fill="#ffcc00" transform="matrix(1,0,0,1,0,0)" fill-rule="nonzero"></path></g><g clip-path="url(#SvgjsClipPath9343922b37688-4d03-491e-acd3-ba29267fc866)"><path d=" M -0.18644043567950508 -2.2849284524654507 C -0.19254046183684603 -2.308771194298712 -0.15697245821891592 -2.3195623573232464 -0.14747664761865598 -2.297830369041891 C -0.1428732437841822 -2.286543772420821 -0.14006062597051827 -2.274581115371146 -0.13680418222662483 -2.262855853586477 C -0.15310188324598384 -2.2745243469382097 -0.14915389677359314 -2.3117747604777072 -0.1789057163988641 -2.2946668190973476 C -0.18703392384202122 -2.2769963541542553 -0.15545003206289598 -2.2645950319409813 -0.17122649565256687 -2.2364120853714056 C -0.1762376000508563 -2.2525910887582614 -0.18335945800105125 -2.268212729349015 -0.18644043567950508 -2.2849284524654507 Z" fill="#ffcc00" transform="matrix(1,0,0,1,0,0)" fill-rule="nonzero"></path></g><g clip-path="url(#SvgjsClipPath9343922b37688-4d03-491e-acd3-ba29267fc866)"><path d=" M 0.21317836759251974 -2.3083789760347884 C 0.22845423681902466 -2.3179676804343985 0.2501759035671193 -2.302309914477231 0.24469516940544767 -2.284778790233164 C 0.2382442111172275 -2.26413572371086 0.23079722486930654 -2.2437042486204093 0.22479009251131588 -2.2228495906662515 C 0.22191554549808468 -2.2126777196373864 0.21766307379449035 -2.200420898889768 0.20621133264124214 -2.1973708858110976 C 0.19237015653803724 -2.1923597814128084 0.17584022102030217 -2.2059325976512234 0.17937534616224682 -2.22059433564869 C 0.18394778539693724 -2.2384815527902666 0.19133800321192196 -2.255568851104104 0.1961478377116187 -2.273425103645897 C 0.20060157931380573 -2.285423886061986 0.2018350025385135 -2.300436556190332 0.21317836759251974 -2.3083789760347884 Z" fill="#ffcc00" transform="matrix(1,0,0,1,0,0)" fill-rule="nonzero"></path></g><g clip-path="url(#SvgjsClipPath9343922b37688-4d03-491e-acd3-ba29267fc866)"><path d=" M -0.1789057163988641 -2.294661658330717 C -0.14913325370707087 -2.311759278177816 -0.15310188324598384 -2.2745346684714707 -0.13680418222662483 -2.2628506928198466 C -0.1309415513342903 -2.249215947381865 -0.12569305167099454 -2.2349412668816915 -0.12183795899795435 -2.220532406449123 C -0.11605790037170916 -2.202149755711011 -0.1428835653174435 -2.188107309709214 -0.15610544942497928 -2.2009782616858704 C -0.16499228956283107 -2.210711467551137 -0.16704111391516996 -2.224402981422055 -0.17123681718582817 -2.2364224069046665 C -0.1554345497630043 -2.2646414788406566 -0.1869668338758239 -2.2767537981226185 -0.1789057163988641 -2.294661658330717 Z" fill="#ffcc00" transform="matrix(1,0,0,1,0,0)" fill-rule="nonzero"></path></g><g clip-path="url(#SvgjsClipPath9343922b37688-4d03-491e-acd3-ba29267fc866)"><path d=" M -0.3588822918735727 -2.2166463491762993 C -0.34946905353940194 -2.220165992018352 -0.34011774440479836 -2.214798794722553 -0.33434284654518376 -2.2075582391398547 C -0.31892247585302236 -2.189614253565342 -0.30444136468762617 -2.170880670696351 -0.2882572005341397 -2.153617906317074 C -0.2822449074095186 -2.1470172857965673 -0.27587136062075723 -2.139219367417767 -0.2766454756153437 -2.1296616276179403 C -0.27814209793821076 -2.119195592891132 -0.28629094844789027 -2.1085024844325786 -0.297639474268527 -2.108616021298451 C -0.308631907191654 -2.1061801394488193 -0.31646079017023787 -2.11568111081571 -0.32235438566235575 -2.123360331562007 C -0.33771282715495 -2.1437918066524575 -0.3556000442965266 -2.1621744573905692 -0.37095848578912083 -2.1825801286478668 C -0.3798711297601256 -2.1941815320334017 -0.37283700484265025 -2.2130131694683737 -0.3588822918735727 -2.2166463491762993 Z" fill="#ffcc00" transform="matrix(1,0,0,1,0,0)" fill-rule="nonzero"></path></g><g clip-path="url(#SvgjsClipPath9343922b37688-4d03-491e-acd3-ba29267fc866)"><path d=" M 0.4036209777940366 -2.216589580743363 C 0.42147723033582973 -2.223566937227902 0.44132553879702485 -2.2007873133205393 0.4299408876099743 -2.184634113766836 C 0.4157229755427375 -2.164930306771297 0.3976602923357212 -2.1483694066537784 0.383034679704669 -2.128959763356182 C 0.3749425976279258 -2.1199903509522406 0.36664408488595923 -2.1070007013430807 0.35272033651666523 -2.108935988829547 C 0.3346886179094327 -2.1109022409157965 0.32779899445761396 -2.1363499811711666 0.3402312812706715 -2.148544872719218 C 0.35647221385709427 -2.165694100232622 0.3726821818437335 -2.182905256945593 0.3872561868084802 -2.2014891775822973 C 0.3918647514095842 -2.207326004641479 0.3969377850074406 -2.2131009025010937 0.4036209777940366 -2.216589580743363 Z" fill="#ffcc00" transform="matrix(1,0,0,1,0,0)" fill-rule="nonzero"></path></g><g clip-path="url(#SvgjsClipPath9343922b37688-4d03-491e-acd3-ba29267fc866)"><path d=" M -0.16292798291060062 -2.0972674954778143 C 0.1909973926143037 -2.309344039394706 0.5795308691638513 -1.8654252153658168 0.30742428780009934 -1.5483322312833332 C 0.2549134873339881 -1.4973025708401972 0.2130132230603411 -1.449735784806178 0.21663608123500533 -1.3714675980868622 C 0.18541344312002062 -1.3519444179233928 0.15744724874892901 -1.3270850050639083 0.1358391188667073 -1.297152558606567 C 0.14106181469684997 -1.3117781712376198 0.15155365325681125 -1.3238027574868618 0.15786011007937517 -1.3379587403545319 C 0.11450967038253645 -1.33095558003684 0.07093215695395239 -1.3255729004411494 0.027163695160037027 -1.3222751705642115 C 0.008584935289963402 -1.3197257518487069 -0.010891797973830553 -1.3203398830777455 -0.028335189185177523 -1.312748395364168 C -0.04000368253691 -1.3051569076505907 -0.05354553417554142 -1.30049157461655 -0.06369160137125418 -1.290557098852691 C -0.08815879596681497 -1.3262747647029078 -0.12176054749849563 -1.3527443367511323 -0.15710147738468028 -1.3767160977501578 C -0.16089464085815364 -1.4944899530265334 -0.25980073333314346 -1.5343620360143642 -0.3038375549918486 -1.6314205740356074 C -0.3872974729415244 -1.7938040960666823 -0.31792128712669065 -2.005343920253994 -0.16290733984407835 -2.0972674954778143 M -0.10787808526224596 -2.0480750679551636 C -0.2510687161942088 -1.9781053939778137 -0.31444809118431305 -1.7872189578460673 -0.23531805643769077 -1.6474602367234377 C -0.20249558066722706 -1.5891693776310816 -0.14419956080824026 -1.54597376093316 -0.12822698808660737 -1.4785070587716396 C -0.11494317477950478 -1.4744868215664209 -0.10128262550836975 -1.471999332050483 -0.08802977680105051 -1.467922326412328 C -0.0990531743239611 -1.5911046651175473 -0.1619319549508993 -1.6041665654595354 -0.20421927672183948 -1.698675684765274 C -0.26831083750696316 -1.8463407003659464 -0.14069540026607896 -2.061235022863132 0.03079171410133208 -1.9933090124714905 C -0.11061329157645128 -1.9768771315197364 -0.21475756218147557 -1.817032706670905 -0.13508048617201207 -1.6883077046044468 C -0.07506593102504344 -1.6124444351349791 -0.03789808975163478 -1.5608677334290022 -0.02995566990717824 -1.4602534271992917 C 0.009359050284549753 -1.4565325144586465 0.04893696957443738 -1.4568834465895257 0.08828265436594929 -1.460021192700916 C 0.09220999777181771 -1.505167579185195 0.10132391164141497 -1.5508506853990542 0.12313847218885987 -1.5910375751513497 L 0.11867956982004213 -1.591362703449076 C 0.11994395764453325 -1.5914194718820125 0.1224624117602543 -1.5915072049147323 0.12369583498496184 -1.5915639733476685 C 0.14972674186958745 -1.640699632437383 0.19675164740739637 -1.6763502083214024 0.21598582463955307 -1.7295319084494882 C 0.2117643175357421 -1.7322000247974962 0.2142260032185267 -1.7346049420473446 0.21830300885668186 -1.735208751743122 C 0.23378530874840975 -1.7764019909883797 0.23761975835492788 -1.8231327328282458 0.22449592881337288 -1.8654665014988612 C 0.3476163383190255 -1.689169552631753 0.1508724320615752 -1.6235452441573484 0.14528332180066117 -1.4681597216773343 C 0.15803557614481456 -1.4714471300210112 0.17131422868528678 -1.472618624046152 0.18362781786584137 -1.4774491016123714 C 0.22822716308727953 -1.6052658087518479 0.3441276600767561 -1.6392339747142994 0.32721066706172797 -1.8105765876160542 C 0.31383912072190545 -2.014204956558693 0.07078249472166565 -2.14865324881846 -0.10789872832876823 -2.0481008717883165 M 0.17368818133535202 -1.4250569987787634 C 0.09136363204440301 -1.4073452477026263 0.006329680272401772 -1.403712067994701 -0.07775985120620421 -1.4047132567210325 C -0.06102348502324628 -1.3851023435248435 -0.04318271478134483 -1.362116288952258 -0.016785393465948206 -1.3561039958276369 C 0.04354912921211607 -1.352584352985584 0.10423974478769027 -1.35953590563697 0.16322214660854384 -1.3719939962831806 C 0.16389820703714897 -1.3901753771227003 0.16585929835676805 -1.4083774010287418 0.17368818133535158 -1.4250311949456107 Z" fill="#041b2b" transform="matrix(1,0,0,1,0,0)" fill-rule="nonzero"></path></g><g clip-path="url(#SvgjsClipPath9343922b37688-4d03-491e-acd3-ba29267fc866)"><path d=" M -0.4268908745313037 -1.3649908359654892 C -0.300632718914261 -1.393891129096715 -0.14188753735774218 -1.3894115836613752 -0.07529300475678913 -1.2586016318761641 C -0.008605578356485566 -1.296048154547624 0.0746685519944893 -1.30022321475176 0.13991096373823153 -1.2574249770843928 C 0.2508674462956165 -1.4510259764638223 0.49278354287049886 -1.3619717874866022 0.6678212646797458 -1.3318638749638216 C 0.6674084033492999 -1.3052704445164633 0.6683373413428036 -1.2786821748357355 0.6677903000799627 -1.2520887443883775 C 0.6273247289296161 -1.2372463795588404 0.5829627789731843 -1.2305631867722446 0.5873752344423265 -1.1770666798796936 C 0.5752009859607975 -0.8925381332361451 0.15498556306614397 -0.8845389449587524 0.10561766947805384 -1.156707455522071 C 0.10085944264466262 -1.173082568040889 0.09983245008517805 -1.1913155565467142 0.0894231837913061 -1.2054767001810147 C 0.07023545345882443 -1.2330764801213354 0.005034327848126852 -1.2314921247657484 -0.018638108686325427 -1.2108748620765974 C -0.033532081182167994 -1.1968014514750165 -0.03417201624435917 -1.1750488201271385 -0.039482445107221875 -1.1564597387238036 C -0.08883485639542066 -0.8948088705535986 -0.4869983234776229 -0.8889772042610478 -0.5202284998119019 -1.1596697355680217 C -0.5190673273200223 -1.2321217382946787 -0.5428068538206721 -1.2298561617438557 -0.601954400173704 -1.2520887443883775 C -0.6028626951006855 -1.2791208399993348 -0.6018976317407678 -1.306152935610292 -0.6023053323045833 -1.3331798704546187 C -0.5439886693790741 -1.3445851647081917 -0.48527462742301053 -1.3538487408100757 -0.4269063568311956 -1.3649908359654892 M -0.3598009083338153 -1.312722591531015 C -0.5534380330796587 -1.2241535146170692 -0.44197579539247744 -0.9732938094713988 -0.24803934618206058 -1.0070400624687355 C -0.1044668185194354 -1.0262845612341533 -0.0540409677720769 -1.206003098377333 -0.17480806769418666 -1.2909131917502006 C -0.2484934936455515 -1.2263003935353889 -0.3164762724701293 -1.1546689527029934 -0.39228277350666074 -1.0925230009375968 C -0.4065316501736813 -1.0897413477237163 -0.42169914330094427 -1.101296304209576 -0.4246201372138503 -1.1152768210118065 C -0.42347444702186243 -1.1284367759197753 -0.4104022251466134 -1.135476061603881 -0.401959210938991 -1.1439758442444399 C -0.34206335342452554 -1.2025402239682168 -0.2757010553219481 -1.2552471335662898 -0.21837525958950965 -1.316035803707845 C -0.2642544749353306 -1.3292267232155972 -0.3152376884787913 -1.3324522023597072 -0.359780265267293 -1.312722591531015 M 0.3357672181352228 -1.325712241140175 C 0.08840651276508293 -1.2931478037012403 0.1484881578782492 -0.9677975930098355 0.3876587266056649 -1.0075045314654871 C 0.502227745804453 -1.021092830003794 0.5729302486433446 -1.1646085892334828 0.4993480380245917 -1.2584313265773552 C 0.4968037800757178 -1.260918816093293 0.49343379946595156 -1.2675194366137998 0.48941356226073285 -1.2636178970410843 C 0.4153410788120747 -1.199835982253795 0.34470566593938046 -1.1309861946352802 0.26824890830739656 -1.0704194374588398 C 0.24907666027480657 -1.0670752606822265 0.20491598021696766 -1.0898342415230668 0.229873447642433 -1.1102037874139505 C 0.30270734709975267 -1.173846361502214 0.3791331401319532 -1.2339641319817944 0.4499233760035647 -1.2997639065216389 C 0.4165641805035213 -1.3214030010036442 0.37516451059304 -1.3295828161131071 0.3357672181352228 -1.3257122411401754 M -0.5348541124429542 -1.3081656345962167 C -0.5418882373604296 -1.307345072701955 -0.5500680524698924 -1.3019727146395255 -0.5493352236083506 -1.2940044909619162 C -0.5485456263138724 -1.2846222172275288 -0.5383427906852236 -1.279141483065857 -0.5296365773794419 -1.2795233797965198 C -0.520078837579615 -1.279580148229456 -0.5084103442278824 -1.2779132206077801 -0.5015207207760636 -1.2862065725831158 C -0.4947343126568561 -1.3061374533104002 -0.5203781620441884 -1.3110246993095558 -0.5348541124429541 -1.3081656345962167 M 0.5798714797614694 -1.3069941405710759 C 0.5723109566476753 -1.3054459105819032 0.5650084718654101 -1.2977563683023448 0.5678830188786413 -1.289695250825385 C 0.572852837143886 -1.2745484007646446 0.60326007413124 -1.2777893622086463 0.6138138418907678 -1.2853292422559177 C 0.6250333485456402 -1.307087034370426 0.5948789891231842 -1.3121291033684988 0.5798147113285329 -1.3069734975045533 Z" fill="#041b2b" transform="matrix(1,0,0,1,0,0)" fill-rule="nonzero"></path></g><g clip-path="url(#SvgjsClipPath9343922b37688-4d03-491e-acd3-ba29267fc866)"><path d=" M -0.48139889168344774 -2.1042758165621365 C -0.456673658756358 -2.113012994467702 -0.42664831849966667 -2.069311622639984 -0.4057007667461584 -2.057075444958888 C -0.3661847766558378 -2.0305852298441414 -0.39876985716129465 -1.9948572424606636 -0.42502267701103513 -2.01462297865577 C -0.4458928172650847 -2.032566964230283 -0.46700035278414054 -2.050273554539789 -0.4875247216739415 -2.068594276078334 C -0.49948737872361676 -2.078126212045008 -0.49535360465252537 -2.0991460145313443 -0.48139889168344774 -2.1042758165621365 Z" fill="#ffcc00" transform="matrix(1,0,0,1,0,0)" fill-rule="nonzero"></path></g><g clip-path="url(#SvgjsClipPath9343922b37688-4d03-491e-acd3-ba29267fc866)"><path d=" M 0.5242384154838596 -2.1046577132927995 C 0.5393646224780778 -2.111428639112115 0.557891774681846 -2.0963024321178967 0.55443406103936 -2.0801182679644104 C 0.5488036646454019 -2.0663390210607724 0.534823147843171 -2.0590675008782906 0.5243829169495157 -2.0493962242125914 C 0.5095508736532405 -2.0376090332283554 0.4962980249459209 -2.023860750924501 0.4805525259560338 -2.0132708577985587 C 0.44954147927290233 -1.9980517570049903 0.4294609363133307 -2.0372890656972595 0.4685950296729887 -2.060646695467247 C 0.4874679532410052 -2.074838803701331 0.5034147221294852 -2.093133721406723 0.5242384154838596 -2.1046577132927995 Z" fill="#ffcc00" transform="matrix(1,0,0,1,0,0)" fill-rule="nonzero"></path></g><g clip-path="url(#SvgjsClipPath9343922b37688-4d03-491e-acd3-ba29267fc866)"><path d=" M -0.587055266911231 -1.9586854291469562 C -0.5691370851698709 -1.9687024771769044 -0.5191034526864362 -1.9332170458250635 -0.49825395549890905 -1.9261209917080215 C -0.49033733948760555 -1.9218375554046434 -0.48051640058961936 -1.9171722223706027 -0.4788443122013127 -1.9072635504398967 C -0.47564979765698606 -1.8921373434456785 -0.4912301521146952 -1.877568499247562 -0.5060518738777096 -1.8812636081550547 C -0.5181899969928243 -1.8841949236012216 -0.5289501954175754 -1.8909968140203208 -0.5401800236057088 -1.8962711175167697 C -0.5554249282324304 -1.9045696302587358 -0.571753593851573 -1.910664495649446 -0.5868230324128552 -1.919282975922508 C -0.6014486450439075 -1.9267041583372764 -0.6024756376033922 -1.9515945357965447 -0.587055266911231 -1.9586854291469562 Z" fill="#ffcc00" transform="matrix(1,0,0,1,0,0)" fill-rule="nonzero"></path></g><g clip-path="url(#SvgjsClipPath9343922b37688-4d03-491e-acd3-ba29267fc866)"><path d=" M 0.6172560732333622 -1.9534111256505076 C 0.6527002184521581 -1.9753495445970861 0.6772345030139165 -1.9349200988131536 0.6407065968026996 -1.9157375292473025 C 0.6165232443718199 -1.9048637939566788 0.5932997945342281 -1.8917296428818626 0.5684558639746348 -1.8823731729806283 C 0.5537115537110789 -1.8767737411864533 0.5368822937287708 -1.8919928419800223 0.5406341710691994 -1.9071758174071767 C 0.540871566334206 -1.917409617635609 0.5513066364612308 -1.9222452559684589 0.5593109855052546 -1.9259713294757348 C 0.5789425417679656 -1.9344143436833572 0.5980373783010969 -1.9440288519161202 0.6172560732333622 -1.9534111256505076 Z" fill="#ffcc00" transform="matrix(1,0,0,1,0,0)" fill-rule="nonzero"></path></g><g clip-path="url(#SvgjsClipPath9343922b37688-4d03-491e-acd3-ba29267fc866)"><path d=" M -0.6190107338877577 -1.6230085244277686 C -0.6037658292610362 -1.6240045523874698 -0.5886396222668179 -1.626264968171662 -0.5733637530403127 -1.6267913663679807 C -0.5420637034258691 -1.6254805316438146 -0.5468477340924129 -1.5824500594780715 -0.5762073354537601 -1.5821713780800204 C -0.6046741241880176 -1.5809121510221598 -0.6330531798895551 -1.5780943724418652 -0.6615199686238125 -1.5768041807842212 C -0.678349228606121 -1.575601722159297 -0.6902809210560128 -1.5963015571145376 -0.6819256398811101 -1.610576237614711 C -0.677910563442522 -1.6178477577971924 -0.6696430153003392 -1.6213364360394618 -0.6616077016565323 -1.6212487030067422 C -0.6473897895892955 -1.621542866704685 -0.6331976813552113 -1.6220124964680673 -0.6190107338877577 -1.6230085244277686 Z" fill="#ffcc00" transform="matrix(1,0,0,1,0,0)" fill-rule="nonzero"></path></g><g clip-path="url(#SvgjsClipPath9343922b37688-4d03-491e-acd3-ba29267fc866)"><path d=" M -0.6487109458467228 -1.7971224690101428 C -0.642378685191006 -1.7994964216602076 -0.6355767947719069 -1.7982939630352834 -0.6292135695164066 -1.7968283053122 C -0.6039258130265841 -1.7907592437546427 -0.5786999857363283 -1.7844424653988176 -0.5532212808811745 -1.7791217150026937 C -0.5194234202175321 -1.7703484117307142 -0.5326865904581124 -1.7225545519649499 -0.5761196024210403 -1.7389296644837675 C -0.5981096290339247 -1.7446065077774011 -0.6203009255454017 -1.7494834322432955 -0.6423167559914391 -1.7550828640374707 C -0.6494128101084811 -1.756754952425777 -0.6561269674948605 -1.7608267972973017 -0.6599098094350727 -1.7671900225528019 C -0.6656847072946874 -1.777862487944833 -0.6606736028963982 -1.793370591669714 -0.6487109458467228 -1.7971224690101428 Z" fill="#ffcc00" transform="matrix(1,0,0,1,0,0)" fill-rule="nonzero"></path></g><g clip-path="url(#SvgjsClipPath9343922b37688-4d03-491e-acd3-ba29267fc866)"><path d=" M 0.6137364303913092 -1.7770986944835077 C 0.6379920335550165 -1.782667161677899 0.6624024597176416 -1.7875956938100994 0.6864722752826479 -1.7938969898660329 C 0.6973098852068574 -1.7966218746469769 0.7119458193711715 -1.7998473537910868 0.7197179339168188 -1.789205852998839 C 0.7171943190344673 -1.78742022774466 0.7147635979514658 -1.785593316357436 0.7123586807016172 -1.7836941542373839 C 0.7123896453014008 -1.7850720789277479 0.7124773783341206 -1.7878227675418448 0.7125341467670568 -1.7891748883990557 C 0.7061709215115567 -1.788999422333616 0.6998128570226868 -1.7889426539006796 0.6935064002001229 -1.7889426539006796 C 0.695054630189296 -1.7871828324796533 0.6966028601784687 -1.7854230110586269 0.6981975370673167 -1.7836373858044474 C 0.6850066175595645 -1.78410701556783 0.6724298292808507 -1.7798545438642353 0.6594917873379965 -1.778213420075712 C 0.6533607965808722 -1.7761026665238067 0.6484683898150861 -1.7711741343916063 0.6421051645595858 -1.769476242170147 C 0.6324906563268226 -1.765724364829718 0.6203783370448607 -1.77308877881155 0.6125804186660603 -1.7644651377718574 C 0.6057527244138082 -1.7593043711412815 0.6057527244138082 -1.7502420649379902 0.607775744932994 -1.742707345657349 C 0.6277375902600623 -1.7400701939091245 0.6467963014267796 -1.747517180157046 0.6663504461900321 -1.750097563472334 L 0.6706906509263463 -1.7457573587360193 C 0.6545064867728599 -1.7427383102571323 0.6388229169825393 -1.7373762737279637 0.6224890905967663 -1.735146822543555 C 0.596050483148325 -1.7306982417079988 0.5874939320748301 -1.7710915621255174 0.6137364303913092 -1.7770986944835077 Z" fill="#ffcc00" transform="matrix(1,0,0,1,0,0)" fill-rule="nonzero"></path></g><g clip-path="url(#SvgjsClipPath9343922b37688-4d03-491e-acd3-ba29267fc866)"><path d=" M 0.6935115609667534 -1.7889426539006799 C 0.6998180177893173 -1.7889426539006799 0.7061760822781872 -1.788999422333616 0.7125393075336875 -1.7891748883990557 C 0.7124825391007511 -1.7878279283084755 0.7123948060680313 -1.785046275094595 0.7123638414682477 -1.7836941542373839 C 0.7147687587180961 -1.7855726732909138 0.7171994798010976 -1.78742022774466 0.7197230946834493 -1.7892058529988393 C 0.7303026662761302 -1.7790030173701905 0.7232375767588713 -1.7601817014684795 0.7103717855488455 -1.7554905646012862 C 0.6974698689724056 -1.7510058583993156 0.6838660881342068 -1.7491892685453525 0.670706133226238 -1.7457573587360198 L 0.6663659284899238 -1.7500975634723341 C 0.6468117837266713 -1.7475171801570462 0.6277530725599537 -1.740070193909125 0.6077912272328855 -1.7427073456573494 C 0.6057682067136997 -1.7502420649379904 0.6057682067136997 -1.759304371141282 0.6125959009659522 -1.7644651377718579 C 0.6203938193447524 -1.7731094218780727 0.632506138626714 -1.7657243648297185 0.6421206468594775 -1.7694762421701473 C 0.6484838721149776 -1.771174134391607 0.6533762788807637 -1.7761026665238069 0.659507269637888 -1.7782134200757127 C 0.6724349900474812 -1.779854543864236 0.685011778326195 -1.7841070155678307 0.6982130193672084 -1.783637385804448 C 0.6966080209450992 -1.785423011058627 0.6950597909559265 -1.7871828324796533 0.6935115609667534 -1.7889426539006799 Z" fill="#ffcc00" transform="matrix(1,0,0,1,0,0)" fill-rule="nonzero"></path></g><g clip-path="url(#SvgjsClipPath9343922b37688-4d03-491e-acd3-ba29267fc866)"><path d=" M 0.6267518838336218 -1.6267036333352611 C 0.6389777399814566 -1.629077585985326 0.6513222937617945 -1.625207011012394 0.6636049183425655 -1.6249747765140181 C 0.6831590631058181 -1.6225698592641695 0.7028577093347265 -1.6226008238639533 0.7224737832975462 -1.6207790732433596 C 0.7334971808204566 -1.620108173581385 0.7451037449726222 -1.6111336004108132 0.7441954500456408 -1.5992638371604881 C 0.7445205783433672 -1.5862741875513282 0.7319437900646534 -1.5756894551920169 0.7192792687532196 -1.5768351453840048 C 0.6917775433788801 -1.5788013974702544 0.6642758180045402 -1.5809637586884655 0.6367482887970478 -1.5825119886776384 C 0.6117082491054927 -1.5818256067157717 0.6023672615041501 -1.6182399760611164 0.6267518838336218 -1.6267036333352611 Z" fill="#ffcc00" transform="matrix(1,0,0,1,0,0)" fill-rule="nonzero"></path></g><g clip-path="url(#SvgjsClipPath9343922b37688-4d03-491e-acd3-ba29267fc866)"><path d=" M 0.6051437539513999 -1.47841932573892 C 0.61482019138373 -1.4792398876331814 0.624026999052678 -1.4741358894355416 0.6332596105547782 -1.4715555061202537 C 0.652669253852375 -1.4632311895451346 0.6728994590442329 -1.4570434303550739 0.6928355005381482 -1.4501847715030385 C 0.7175607334652377 -1.4430113058865377 0.7242852123848783 -1.416639788404294 0.6989871343617949 -1.4045377906555934 C 0.6883456335695469 -1.4019006389073692 0.6778279911764332 -1.4069117433056584 0.6679709269120327 -1.4103436531149915 C 0.6467188899273207 -1.4188434357555502 0.6250539916121626 -1.4263420296697773 0.6035026301628769 -1.4340315719493355 C 0.5818841787473937 -1.4403277072386382 0.5824208984769738 -1.474290712434459 0.6051437539513999 -1.47841932573892 Z" fill="#ffcc00" transform="matrix(1,0,0,1,0,0)" fill-rule="nonzero"></path></g><g clip-path="url(#SvgjsClipPath9343922b37688-4d03-491e-acd3-ba29267fc866)"><path d=" M -0.5556571627308062 -1.4754880102927523 C -0.5220760542656482 -1.4835078416366678 -0.5092102630556221 -1.4362661839003747 -0.5590013395074196 -1.4264607273022802 C -0.5807230062555141 -1.4199530005811238 -0.6012164105455315 -1.410044328650418 -0.6228813088606898 -1.403531441162631 C -0.6379197828221884 -1.3988145004622845 -0.6536910856452287 -1.4139974758894394 -0.6497637422393603 -1.4292733451159443 C -0.6497947068391439 -1.440854105434957 -0.6377133521569653 -1.44572070836759 -0.628537509087801 -1.4489771521114836 C -0.6039412953264757 -1.4569866619221374 -0.5799024443612526 -1.466487633289028 -0.5556571627308062 -1.4754880102927523 Z" fill="#ffcc00" transform="matrix(1,0,0,1,0,0)" fill-rule="nonzero"></path></g><g clip-path="url(#SvgjsClipPath9343922b37688-4d03-491e-acd3-ba29267fc866)"><path d=" M -0.3598009083338153 -1.312722591531015 C -0.3152376884787913 -1.3324522023597072 -0.2642544749353306 -1.3292370447488584 -0.21839590265603182 -1.316035803707845 C -0.2757216983884705 -1.255241972799659 -0.3420788357244172 -1.2025402239682168 -0.4019746932388827 -1.1439706834778094 C -0.41042286821313545 -1.1354760616038813 -0.4234950900883847 -1.1284367759197758 -0.42464078028037255 -1.115276821011807 C -0.42170946483420546 -1.1012911434429458 -0.4065522932402036 -1.0897413477237166 -0.39230341657318324 -1.092523000937597 C -0.3164969155366518 -1.1546431488698405 -0.24851413671207367 -1.2263003935353889 -0.17482871076070894 -1.2909131917502008 C -0.05406677160522966 -1.2059669730109195 -0.1044616577528048 -1.0262948827674148 -0.24807031078184405 -1.0070400624687357 C -0.4420532068919363 -0.9732938094713988 -0.5534173900131364 -1.2242206045832666 -0.3598009083338153 -1.312722591531015 M -0.17780131233992091 -1.2352388413395465 C -0.23966342194063572 -1.1779182063737386 -0.3055354472133084 -1.1243133233819453 -0.3635527856742441 -1.0630911488434216 C -0.3541705119398568 -1.0588077125400435 -0.34206335342452554 -1.0520987159202946 -0.33233014755925916 -1.0589264101725469 C -0.27246525464457716 -1.1121235926005244 -0.2131164383929528 -1.1662290699554838 -0.15578032112725293 -1.2221304940978832 C -0.1542578949712331 -1.2286433815856703 -0.1612352514557719 -1.2345627809109412 -0.16513679102848722 -1.2392539177781345 C -0.16949247806469325 -1.2443527552091438 -0.17430231256439022 -1.2377572954552674 -0.1778219554064432 -1.235233680572916 Z" fill="#fcfdfd" transform="matrix(1,0,0,1,0,0)" fill-rule="nonzero"></path></g><g clip-path="url(#SvgjsClipPath9343922b37688-4d03-491e-acd3-ba29267fc866)"><path d=" M 0.33572593200217804 -1.3257070803735442 C 0.3751232244599957 -1.3295776553464764 0.4165228943704765 -1.3213978402370135 0.4498820898705199 -1.299758745755008 C 0.37909185399890843 -1.2339589712151635 0.3026660609667079 -1.1738360399689527 0.22983216150938823 -1.1101986266473196 C 0.204859211784031 -1.0898084376899135 0.2490611779749149 -1.0670855822154874 0.2682076221743518 -1.070414276692209 C 0.34466954057296617 -1.1309913554019104 0.41528947114576875 -1.199830821487164 0.4893774368943181 -1.2636127362744534 C 0.4933925133329068 -1.2675142758471687 0.4967624939426726 -1.260913655326662 0.4993119126581774 -1.2584261658107245 C 0.5728167117774717 -1.1645982677002213 0.5022277458044525 -1.0210825084705326 0.38761227970598966 -1.0075045314654871 C 0.14832301334607056 -0.9678285576096184 0.08847876349791084 -1.2932252152006984 0.33572593200217804 -1.325707080373544 M 0.38110455298483326 -1.1154471263106152 C 0.36181360731973966 -1.0999080579859506 0.3429148799185703 -1.0838683952981205 0.32414517168316526 -1.0676893919112647 C 0.31572796130869574 -1.060624302394006 0.3090447685220997 -1.050596932830797 0.29740723977015093 -1.0485945553781333 C 0.30432782782175327 -1.0471547014882026 0.31124325510672557 -1.045689043765119 0.3181638431583279 -1.044047919976596 C 0.37448328939780395 -1.088755641297276 0.42369119922034637 -1.1425463118877701 0.476124588186999 -1.1918625978095545 C 0.4439317259454657 -1.1670702749162678 0.41320968219364695 -1.1404252368026035 0.38110455298483326 -1.1154471263106154 Z" fill="#fcfdfd" transform="matrix(1,0,0,1,0,0)" fill-rule="nonzero"></path></g><g clip-path="url(#SvgjsClipPath9343922b37688-4d03-491e-acd3-ba29267fc866)"><path d=" M -0.5349005593426295 -1.308144991529694 C -0.5204504127770166 -1.3110040562430332 -0.4947704380232702 -1.3061116494772471 -0.501567167675739 -1.2861859295165932 C -0.5084567911275579 -1.2778925775412573 -0.5201459275458127 -1.2795595051629334 -0.5296830242791173 -1.2795027367299971 C -0.538389237584899 -1.2791208399993348 -0.5485920732135479 -1.2846015741610064 -0.549381670508026 -1.2939838478953936 C -0.5501144993695677 -1.3019314285064807 -0.5419346842601047 -1.3073244296354325 -0.5349005593426295 -1.308144991529694 Z" fill="#ffcc00" transform="matrix(1,0,0,1,0,0)" fill-rule="nonzero"></path></g><g clip-path="url(#SvgjsClipPath9343922b37688-4d03-491e-acd3-ba29267fc866)"><path d=" M 0.5798147113285329 -1.3069734975045533 C 0.5948738283565537 -1.3121342641351295 0.6250436700789014 -1.307087034370426 0.6137364303913092 -1.2852982776561341 C 0.6032291095314565 -1.2777687191421236 0.5727909079443189 -1.2745225969314913 0.5678056073791825 -1.2896694469922318 C 0.5649517034324737 -1.2977563683023445 0.5722335451482169 -1.305445910581903 0.5798147113285329 -1.3069734975045533 Z" fill="#ffcc00" transform="matrix(1,0,0,1,0,0)" fill-rule="nonzero"></path></g><g clip-path="url(#SvgjsClipPath9343922b37688-4d03-491e-acd3-ba29267fc866)"><path d=" M -0.1778219554064432 -1.235233680572916 C -0.17430231256439022 -1.2377572954552674 -0.16949247806469347 -1.2443527552091438 -0.1651574340950096 -1.239248757011504 C -0.16125589452229405 -1.2345576201443105 -0.15427853803775538 -1.2286382208190398 -0.1558061249604058 -1.2221304940978832 C -0.2131164383929528 -1.1662239091888533 -0.27247041541120764 -1.112118431833894 -0.33235079062578143 -1.0589212494059161 C -0.3420839964910478 -1.0520935551536643 -0.3541911550063792 -1.058802551773413 -0.3635734287407665 -1.0630859880767913 C -0.30555609027983066 -1.1243081626153146 -0.239684065007158 -1.177913045607108 -0.1778219554064432 -1.235233680572916 Z" fill="#05283b" transform="matrix(1,0,0,1,0,0)" fill-rule="nonzero"></path></g><g clip-path="url(#SvgjsClipPath9343922b37688-4d03-491e-acd3-ba29267fc866)"><path d=" M -0.5836852863014648 -1.193369541665683 C -0.5724864227131148 -1.1977355502351503 -0.5617571888881472 -1.2046561382867529 -0.5494126351078092 -1.2048935335517594 C -0.5397671622752627 -0.8784285972681498 -0.09881061829232396 -0.838004312250848 -0.017224058629547234 -1.1497146167376404 C 0.015526166408088349 -1.1432946230492038 0.04853442977725264 -1.1517789233898708 0.08057762978649918 -1.1583072931775495 C 0.15032539079873464 -0.8499979339003068 0.596834919676173 -0.8636584831714413 0.613122299162271 -1.1919348485423829 C 0.6876128047080056 -1.1630345554111572 0.7620207379876506 -1.1338555808818802 0.8373937346272134 -1.1073240796340889 C 0.5924792326399665 -0.9718745986479904 0.35042379536605883 -0.8309082581338061 0.10939535065163553 -0.6886517259619775 C 0.10482291141694511 -0.6877692348681492 0.10118973170901968 -0.6918462405063042 0.09726238830315104 -0.6933377020625406 C -0.19930106612290044 -0.8293703496778944 -0.5005195320497321 -0.9589004313387222 -0.7939762049641771 -1.1000525594516073 C -0.7243058554514006 -1.1319873833616116 -0.6538097832777319 -1.1623275303827683 -0.5836852863014648 -1.193369541665683" fill="#041b2b" transform="matrix(1,0,0,1,0,0)" fill-rule="nonzero"></path></g><g clip-path="url(#SvgjsClipPath9343922b37688-4d03-491e-acd3-ba29267fc866)"><path d=" M 0.007578585797000881 -1.19978953535412 C 0.022854455023505804 -1.2021634880041847 0.03850706021404304 -1.2017815912735221 0.05387066247326777 -1.2005533288154449 C 0.06439346563301218 -1.199350870190521 0.06858916890367073 -1.188064273569451 0.07019932809241036 -1.179032931965943 C 0.044839320869759614 -1.1740218275676537 0.018689716352630947 -1.1690932954354536 -0.007212171366230091 -1.1718801094159645 C -0.005204633146935866 -1.182258411110053 -0.002299121533921533 -1.1941333351270085 0.007578585797000881 -1.19978953535412 Z" fill="#032538" transform="matrix(1,0,0,1,0,0)" fill-rule="nonzero"></path></g><g clip-path="url(#SvgjsClipPath9343922b37688-4d03-491e-acd3-ba29267fc866)"><path d=" M 0.38110455298483326 -1.1154471263106154 C 0.41320968219364695 -1.1404252368026035 0.4439317259454657 -1.167054792616376 0.476124588186999 -1.191872919342816 C 0.44722429505577355 -1.163524828241062 0.4179266228939934 -1.135527669270187 0.38899020439635323 -1.1072053820015857 Z" fill="#01191d" transform="matrix(1,0,0,1,0,0)" fill-rule="nonzero"></path></g><g clip-path="url(#SvgjsClipPath9343922b37688-4d03-491e-acd3-ba29267fc866)"><path d=" M 0.3241451716831657 -1.0676893919112649 C 0.3429045583853093 -1.0838683952981207 0.3618187680863706 -1.099908057985951 0.38110455298483326 -1.1154471263106154 L 0.38899020439635346 -1.1071898997016938 C 0.37505613449379827 -1.0931216498667435 0.35957383460207015 -1.080689363053686 0.34539720866787815 -1.0668791515502645 C 0.3366239053958987 -1.058936731705808 0.32868664631807276 -1.0497299240368603 0.31816384315832813 -1.0440427592099655 C 0.3112432551067258 -1.0456838829984885 0.30432782782175394 -1.0471392191883109 0.2974072397701514 -1.0485893946115028 C 0.309034446988839 -1.0505969328307971 0.31574344360858764 -1.0606243023940065 0.3241451716831657 -1.0676893919112649 Z" fill="#0c2a32" transform="matrix(1,0,0,1,0,0)" fill-rule="nonzero"></path></g><g clip-path="url(#SvgjsClipPath9343922b37688-4d03-491e-acd3-ba29267fc866)"><path d=" M 0.731618661766927 -1.0063588412734996 C 0.7809297869220811 -1.0350010960731963 0.8303286451099553 -1.0635246532403901 0.8805222613589373 -1.0905567488513475 C 0.8904877017225797 -1.0881208670017157 0.8994880787263043 -1.0824027375750374 0.9091903199917871 -1.078914059332768 C 0.9234701612585913 -1.0726695317097712 0.9390350334164083 -1.0693614802995715 0.9526955826875435 -1.0617080633864273 C 0.9726625887812418 -1.0479288164827893 0.9666296525900985 -1.0129801048605285 0.9445776967776475 -1.0045112868197534 C 0.8366815488321945 -0.9588539844390473 0.827577956495858 -0.8095426842832212 0.9525562419885182 -0.7802708159545941 C 0.9678837188813286 -0.7687158594687344 0.9691429459391897 -0.7433558522460837 0.9558333287989341 -0.7297520714078856 C 0.6895790567942549 -0.5634205629044198 0.4257864704723612 -0.38790805056515976 0.14926743363946648 -0.23922120317163387 C 0.14307451368277524 -0.24059912786199744 0.13645841086237687 -0.24361817634088467 0.13021388323937966 -0.2409500599928771 C 0.1123008622646503 -0.23236254431959802 0.09081143001493175 -0.23441136867193713 0.07283647984063546 -0.2417706218871385 C 0.07395120543283984 -0.24391234003882722 0.07509689562482802 -0.2459921289909497 0.07626838964996863 -0.24804611410991884 C 0.06471389882769285 -0.24358479904686492 0.05238389752688899 -0.24147920611090878 0.04000368253691067 -0.2418531941532276 C 0.04135064262749111 -0.2436130155742542 0.04270276348470203 -0.24537283699528034 0.04413229584137157 -0.24707072921673978 C 0.014948160545464106 -0.2428285790464062 0.019628975879396604 -0.2540996933675843 0.003119683428183917 -0.26958715402594313 C -0.0013959873735700512 -0.26976262009138274 -0.005823925142604214 -0.26897302279690516 -0.01022089831185502 -0.2684466246005859 C -0.007664598574176451 -0.2708549823615214 -0.005084215258888358 -0.27322893501158596 -0.0024797483659909636 -0.2755684825507809 C -0.012285204964085472 -0.2755994471505643 -0.022503522892626138 -0.2751298173871817 -0.031710330561573574 -0.27896942776033073 C -0.03255669628898805 -0.28213813847150426 -0.033000522219217454 -0.28533265301583066 -0.03352692041553629 -0.28847039912722083 C -0.04138160722727291 -0.2895025524533361 -0.04926725863879333 -0.2906069565122795 -0.05695164015172094 -0.29254224399874573 C -0.0582676356425178 -0.2917836113040506 -0.06087898355758925 -0.29022505978161695 -0.06216917521523335 -0.2894457840203999 C -0.06220013981501682 -0.2928157646301659 -0.06220013981501682 -0.296154780640149 -0.06216917521523335 -0.29949895741676213 C -0.05907271523688773 -0.2993544559511059 -0.055924647592236365 -0.29920479371881914 -0.05278690148084608 -0.29898288075370427 C -0.05148312829229518 -0.30655286357141565 -0.0512174830745169 -0.31426525610325706 -0.05199730418636772 -0.32190700612672307 C -0.054928619632535036 -0.3234552361158958 -0.057828970478918995 -0.3249570192053932 -0.060734482091933106 -0.32642267692847726 C -0.059795222565168116 -0.3280070322840638 -0.05791670351163847 -0.33113961762882393 -0.05697744398487359 -0.3326981691512576 C -0.04135064262748922 -0.32164896779519436 -0.048276391445722266 -0.3172777984590964 -0.044256154240503665 -0.3017335693678014 C -0.033243078250854374 -0.2889555111904949 -0.004002174522010571 -0.28168915177464404 0.012589690195291325 -0.2798054719544836 C 0.013730219620648798 -0.27901071389337506 0.015990635404841136 -0.2774263585377885 0.017105360997045516 -0.27663676124331005 C 0.014891392112528323 -0.2956696685768745 0.011500768436239817 -0.2970992009335438 -0.006319358739139136 -0.3017903378007376 C -0.008435846539026515 -0.3106190928958328 -0.01143202824256484 -0.31921344906911076 -0.015262967309927267 -0.3274445087213307 C -0.0152320027101438 -0.3290237033102872 -0.015144269677423994 -0.3321924140214607 -0.015087501244487656 -0.33377676937704814 C -0.004471804285392622 -0.31935242664458796 0.010685367308609028 -0.3093250570813786 0.023582123118418563 -0.29709920093354425 C -0.05084129246111857 -0.4108734620712233 -0.02364921308461332 -0.5735614693335023 0.07453437206209579 -0.6647625372290422 C 0.08051570058693336 -0.6622698869464738 0.0867911928097137 -0.6600455965286958 0.09177649337485005 -0.655705391792381 C -0.006918007668285875 -0.5696960551272008 -0.035240294936887295 -0.3947667094171958 0.05025812583186606 -0.290710171844891 C 0.05741610914847495 -0.283381883229473 0.06785117927549977 -0.2815601326088797 0.07729022144282338 -0.2787165501954325 C 0.08907741242705913 -0.2759916654144887 0.10062720814628812 -0.2723584857065626 0.11229570149802048 -0.2690143089299495 C -0.1962458922775996 -0.6469836961867068 0.5047771645199574 -0.8330086901524503 0.731618661766927 -1.0063588412734996 M 0.8359900061036966 -1.0102861846793678 C 0.6149543713161248 -0.8762559145166777 0.38184254261300576 -0.7586833291388948 0.16802682034160987 -0.6142231496158104 C 0.15263741424923205 -0.5995252862519298 0.1405921849334678 -0.5819064289751432 0.12733933622614824 -0.565402297290561 C 0.36891482220341254 -0.6966663965392623 0.6041374044584377 -0.839227413942295 0.8414965440985215 -0.977747551073586 C 0.8506156187347492 -0.9895347420578218 0.8586767362117088 -1.0023747294346947 0.8707890554936711 -1.0114628394711391 C 0.8592650636075948 -1.0122214721658338 0.8457799804018996 -1.0197871560462584 0.8359900061036966 -1.0102603808462152 M 0.7280886973916129 -0.8632198180078425 C 0.5178958332948816 -0.7462149169594228 0.310907805275738 -0.619605829211501 0.10454939078552472 -0.4981987942271997 C 0.1010916771430389 -0.4857355428143586 0.10211866970252326 -0.47260139173954263 0.10050334974715314 -0.4598491373953888 C 0.3416143667276653 -0.5923053737357533 0.580532057890183 -0.7294682292432033 0.814490252320717 -0.8742586978306444 C 0.8146657183861566 -0.8873360804725239 0.8147792552520295 -0.900578607646582 0.8180047343961395 -0.9133102189242133 C 0.7875562112757409 -0.8974202184686695 0.757876642383298 -0.8802090617556986 0.7280886973916133 -0.8632043357079504 M 0.8141960886227745 -0.82449858597863 C 0.5935010644328206 -0.6975179230333071 0.37092752118933736 -0.5721938661763988 0.15221939215215563 -0.44264830221567886 L 0.1517033154890982 -0.4415026120236911 C 0.13441474727666847 -0.4331886169818333 0.1189840550512461 -0.42167494662901794 0.10180386293805832 -0.4131803247550896 C 0.10517384354782455 -0.4029207206935044 0.10409008255540353 -0.39125222734177223 0.10954501288392249 -0.38175641674151195 C 0.3517191477903331 -0.51935277664593 0.5937797458308717 -0.6581257913421199 0.8308860079060573 -0.8045625444847146 C 0.8296267808481971 -0.8125359289289547 0.8242595835523975 -0.8190746202498946 0.822112704634078 -0.8267538409961914 C 0.8192949260537835 -0.8266093395305354 0.8165132728399028 -0.8261706743669366 0.8142270532225578 -0.82449858597863 M 0.8393187005804187 -0.7634002698392406 C 0.6018202202413098 -0.6249420619075159 0.36289220754553086 -0.48837269456258237 0.13046676080427788 -0.3415901700557389 C 0.13574622506735723 -0.33766282664987024 0.14096376013086942 -0.3335858210117153 0.14621225979416563 -0.32953977997334327 L 0.1460367937287258 -0.32936431390790366 C 0.149613205003715 -0.3266961975598961 0.1530141502132646 -0.3236874706142703 0.1568744036529356 -0.3213341610307272 C 0.4019798540055136 -0.4588943955687317 0.6408717413348785 -0.6086908077878315 0.8800629531288163 -0.7564538779544845 C 0.8715322058884741 -0.7604999189928565 0.8648180485020945 -0.7671831117794523 0.8568756286576381 -0.7720497147120853 C 0.8503214550368067 -0.7709143460533596 0.845078116140141 -0.7663367460520387 0.8392980575138961 -0.7634054306058717 Z" fill="#041b2b" transform="matrix(1,0,0,1,0,0)" fill-rule="nonzero"></path></g><g clip-path="url(#SvgjsClipPath9343922b37688-4d03-491e-acd3-ba29267fc866)"><path d=" M -0.8756814622594569 -1.05384821580806 C -0.8647457977692662 -1.0645206812000911 -0.8548061612387768 -1.076746537347926 -0.8407946798367629 -1.0835793923668087 C -0.7580263046155844 -1.042995123583959 -0.6709538500245056 -1.0103739177120876 -0.5900433507903344 -0.9664867582856693 C -0.6038225976939725 -0.9569599830856257 -0.6149646928493862 -0.9444089986400648 -0.6259003573395767 -0.9319096218608098 C -0.6856207487886027 -0.9629567939103549 -0.7487266031472863 -0.9871298248079734 -0.8078689887336877 -1.0192452755500478 C -0.8954884845876077 -0.9701560633600086 -0.8946059934937792 -0.8018066951039875 -0.8322329679966373 -0.7308409931669366 C -0.7969126811769749 -0.7037108429899985 -0.7511470026970265 -0.6913611284430301 -0.711739388705948 -0.6703826120897383 C -0.7456662685353549 -0.69261519473426 -0.7814716674182914 -0.7118390504331555 -0.8175351046327567 -0.730371363403554 C -0.8945130996944288 -0.7836459573309906 -0.8858894586547363 -0.9369878162252963 -0.8194136236862863 -0.9972088020374876 C -0.7587333296439733 -0.9683085089062617 -0.6967680047106469 -0.9415654162266169 -0.6371198639944491 -0.9107246748422946 C -0.6858271794538259 -0.841895530290302 -0.7104027501486289 -0.6956600470462995 -0.6477665255533276 -0.6306859951673474 C -0.6415168371637 -0.6278166089207471 -0.6367689318635701 -0.6228313083556107 -0.632666122392262 -0.6174073426268751 C -0.6602710630992132 -0.666223034185494 -0.6666188060548218 -0.7251899537064557 -0.6583460971460084 -0.7800592245227398 C -0.6559102152963765 -0.7766273147134068 -0.6533040281479356 -0.7733192633032078 -0.6506359117999279 -0.7699750865265944 C -0.6450777661387974 -0.7776646288061528 -0.6453667690701097 -0.7884299879975345 -0.6383532872191569 -0.7948654639858626 C -0.6477716863199581 -0.7370339131236279 -0.6467395329938428 -0.6729629954050265 -0.6163735821395334 -0.6211798630338266 C -0.6112695839418937 -0.6128297426255545 -0.6014073589108629 -0.610342253109617 -0.593093363869005 -0.6063478197375514 C -0.5288882662180086 -0.5760747626825924 -0.46296463327903037 -0.5497238882668709 -0.3981092790325813 -0.5209784181345622 C -0.4587895730748943 -0.5588378021364682 -0.5229998314925213 -0.5910513074445238 -0.5865288687149124 -0.6238479793818346 C -0.6223084637646961 -0.7033237854927055 -0.6125649363661685 -0.8005474680461269 -0.5659477313921751 -0.873572315868778 C -0.5633983126766705 -0.8771848525101811 -0.5589136064747 -0.8731904191381152 -0.5558893972291825 -0.8721943911784142 C -0.48257038570858873 -0.8364251176618918 -0.40816245242894345 -0.8030039929622812 -0.3344047757447506 -0.7682049435723071 C -0.38632208804834545 -0.6876969841353209 -0.39303624543472493 -0.5818703036087289 -0.3571121489192851 -0.49365215882566216 C -0.34123763076363334 -0.4865767477751426 -0.3302761624402899 -0.47233303187475273 -0.31554217370999527 -0.4633945840705951 C -0.3143964835180074 -0.46506667245890165 -0.31207929930087885 -0.46841084923551524 -0.31089748374247683 -0.47010358069034375 C -0.22881032971653448 -0.43279639871790976 -0.14606259756187823 -0.3968516591359479 -0.06399092583582777 -0.35958060252992774 C -0.14598518606241984 -0.4060894314046788 -0.22932124561296163 -0.4508590819249261 -0.31409199828680345 -0.49209360730322826 C -0.34984578950343426 -0.572838962005221 -0.33600977416685984 -0.6712289778171532 -0.29486298182127724 -0.747649610082723 L -0.29245806457142864 -0.7482637413117617 C -0.19535824041714045 -0.7017652339702718 -0.09761848120066108 -0.6565311144532726 0.00018320721538545026 -0.6115601940344333 C -0.06493018536259243 -0.5058883365067584 -0.04811640768017578 -0.41021288394250965 -0.006324519505771065 -0.3018832316000881 C 0.011526572269391577 -0.2971869339662634 0.014886231345896506 -0.29573675854307213 0.017100200230413587 -0.27672965504266056 C 0.015985474638209207 -0.2775192523371386 0.01372505885401687 -0.2791036076927256 0.012584529428659508 -0.27989836575383453 C -0.003929923789183665 -0.28176656327410265 -0.03326372131737798 -0.28905356575647634 -0.04426131500713548 -0.3018213024005214 C -0.04826090914583192 -0.31733456689203265 -0.041391928760535324 -0.3217934692608502 -0.056982604751505406 -0.3327859021839772 C -0.057921864278270396 -0.3312376721948045 -0.05980038333179993 -0.3280947653167834 -0.060739642858564924 -0.32651040996119685 C -0.05783413124555059 -0.32504475223811324 -0.054933780399166854 -0.3235481299152463 -0.05200246495299976 -0.32199473915944266 C -0.05122264384114894 -0.3143529891359771 -0.05148828905892744 -0.30664059660413523 -0.052792062247478344 -0.2990706137864243 C -0.05592980835886818 -0.2992718836850168 -0.059067554470258465 -0.2994215459173035 -0.06217433598186528 -0.2995866904494817 C -0.06220530058164864 -0.29624767443949906 -0.06220530058164864 -0.2929034976628855 -0.06217433598186528 -0.2895335170531199 C -0.06088414432422118 -0.2902921497478146 -0.05827279640914973 -0.29185070127024826 -0.056956800918352646 -0.2926299770314653 C -0.04927241940542504 -0.29069468954499955 -0.04138676799390473 -0.2896109285525781 -0.033532081182168216 -0.28855813215994086 C -0.033016004519110576 -0.28542038604855025 -0.03256185705561976 -0.28222587150422385 -0.0317154913282055 -0.2790571607930503 C -0.022508683659257733 -0.27521755041990215 -0.0122748834308255 -0.2756871801832843 -0.0024849091326228923 -0.27565621558350095 C -0.005096257047694341 -0.2733132275332193 -0.007676640362982323 -0.27093927488315384 -0.010226059078486949 -0.26853435763330546 C -0.005829085909236031 -0.2690504342963633 -0.0014011481402018688 -0.2698503531241023 0.0031145226615520993 -0.2696748870586627 C 0.019628975879395494 -0.2541925871669348 0.014984285911876949 -0.24291115131249574 0.044127135074739754 -0.2471584622494598 C 0.04272340655122331 -0.24546057002800037 0.04137128569401216 -0.24370074860697377 0.03999852177027907 -0.24194092718594717 C 0.052378736760257616 -0.24156693914362837 0.06470873806106103 -0.24367253207958495 0.07626322888333659 -0.24813384714263886 C 0.07509173485819598 -0.2460695404904083 0.07394604466620824 -0.24400523383817774 0.07283131907400364 -0.24185835491985852 C 0.09080626924829993 -0.2344991017046567 0.11229570149801849 -0.2324502773523185 0.13020872247274784 -0.2410377930255967 C 0.13645325009574483 -0.2437059093736047 0.1430745136827739 -0.24068686089471703 0.14926227287283467 -0.23930893620435345 C 0.10539575651293831 -0.22400726314469566 0.05670908412008402 -0.22972023180474332 0.013967614885653457 -0.24599212899094924 C -0.1929171978008788 -0.34179143995433225 -0.39442965242498107 -0.44906829590411634 -0.6006332439162773 -0.5464003545567804 C -0.6827203979422196 -0.5909480921119128 -0.7735189260405744 -0.6214791874984005 -0.8505330464686607 -0.6743873669950662 C -0.9623565378199814 -0.7646491753638405 -0.9754029558620776 -0.9498639289685835 -0.8756814622594569 -1.05384821580806 Z" fill="#041b2b" transform="matrix(1,0,0,1,0,0)" fill-rule="nonzero"></path></g><g clip-path="url(#SvgjsClipPath9343922b37688-4d03-491e-acd3-ba29267fc866)"><path d=" M -0.5923914996072466 -0.9320696056263571 C -0.5852386770572682 -0.9404506906344128 -0.577585260144124 -0.948429235845283 -0.5707162797588272 -0.9570735199514981 C -0.5642395176374544 -0.9554943253625416 -0.5579949900144572 -0.9530894081126935 -0.5515440317262373 -0.9512986220918833 C -0.5531541909149769 -0.9451418275016061 -0.5591974486393816 -0.9420092421568464 -0.5632434896777532 -0.9376071082209652 C -0.5855792876548862 -0.9146520182481628 -0.6027904443678573 -0.8872689905063265 -0.6166883889039986 -0.8585390026739099 C -0.6204763916108413 -0.8648557810297348 -0.6154601264459214 -0.8736239235350836 -0.6223136245313265 -0.8784182757348884 C -0.6271802274639597 -0.8573984732485525 -0.6393751190120107 -0.8391964493425108 -0.6455370743689186 -0.8186720804527097 C -0.6488502865457484 -0.806559761170748 -0.6506410725665583 -0.794132635124321 -0.6531904912820629 -0.78185001054355 C -0.6543619853072036 -0.782200942674429 -0.656704973357485 -0.782882163869665 -0.6578816281492564 -0.783227935233914 C -0.6517867627585461 -0.8380197945507399 -0.6264886847354625 -0.8892662071923598 -0.5923914996072466 -0.9320696056263571 Z" fill="#042330" transform="matrix(1,0,0,1,0,0)" fill-rule="nonzero"></path></g><g clip-path="url(#SvgjsClipPath9343922b37688-4d03-491e-acd3-ba29267fc866)"><path d=" M -0.5527826157175755 -0.8974460223018228 C -0.5436945056811312 -0.9110756069731742 -0.532655625858329 -0.9232498554547028 -0.5213019392710616 -0.9350267249056776 C -0.330833525236392 -0.8478975018816624 -0.1389200965451609 -0.7637150766037062 0.0504800387969796 -0.67433575932876 C 0.03361981421488758 -0.6643083897655508 0.02356664081852544 -0.646895963153987 0.011954915899729301 -0.6317387915599852 C -0.08649186834513889 -0.6796410274249922 -0.18719390760756915 -0.7227953579898689 -0.28575422871831035 -0.7704911631896527 C -0.28320481000280573 -0.7769730860776558 -0.28079989275295736 -0.7835375812317487 -0.27877687223377146 -0.7901949701851916 C -0.285903890950597 -0.7864688966779159 -0.29116271214715395 -0.7802243690549189 -0.29748465126960955 -0.7754506599216362 C -0.3021757881368031 -0.7779123456044206 -0.3068049958044299 -0.7803740312872056 -0.31141872117216496 -0.7828666815697736 C -0.31141872117216496 -0.7866185589102026 -0.3113877565723815 -0.7903704362506312 -0.3113877565723815 -0.7940655451581236 C -0.3155782990764092 -0.7927134243009126 -0.31892247585302236 -0.7899627356868155 -0.3219157204987566 -0.7868404718753172 C -0.39813508286573407 -0.8252210933069111 -0.47662518255016484 -0.858967346304248 -0.5527826157175755 -0.8974460223018228 Z" fill="#041b2b" transform="matrix(1,0,0,1,0,0)" fill-rule="nonzero"></path></g><g clip-path="url(#SvgjsClipPath9343922b37688-4d03-491e-acd3-ba29267fc866)"><path d=" M -0.6222929814648042 -0.8784182757348888 C -0.615331107280157 -0.8733813675034465 -0.6205589638769307 -0.8644016335662446 -0.6163735821395334 -0.8577752092125848 C -0.6267776876667748 -0.8379578653511726 -0.6324080840607331 -0.8161123402039443 -0.6383326441526345 -0.7948603032192325 C -0.6392667429127687 -0.7938281498931172 -0.6411762265660819 -0.7918102901405621 -0.6421412899259997 -0.7907832975810773 C -0.6445152425760645 -0.7836924042306659 -0.646687925327537 -0.776446687881337 -0.6506152687334056 -0.7699699257599641 C -0.6539129986103436 -0.7744236673621514 -0.6581035411143713 -0.7783716538345422 -0.6597343433696334 -0.783718208063819 C -0.6577938951165369 -0.7832021314007609 -0.655125778768529 -0.7824073733396524 -0.6531956520486936 -0.7818448497769195 C -0.6506462333331889 -0.7941274743576907 -0.6488554473123791 -0.8065546004041173 -0.6455422351355493 -0.8186669196860796 C -0.6393544759454886 -0.8391912885758803 -0.6271595843974372 -0.8573984732485525 -0.6222929814648042 -0.8784182757348888 Z" fill="#032b3c" transform="matrix(1,0,0,1,0,0)" fill-rule="nonzero"></path></g><g clip-path="url(#SvgjsClipPath9343922b37688-4d03-491e-acd3-ba29267fc866)"><path d=" M -0.3508779428295493 -0.6930486991312286 C -0.3438438179120741 -0.7173043022949359 -0.33446154417768703 -0.7416527992579938 -0.31901020888574216 -0.7618830044498519 C -0.3150519008800905 -0.7602109160615453 -0.3110935928744387 -0.7584510946405187 -0.3071404456354174 -0.7566654693863395 C -0.3101646548809349 -0.7481914905789335 -0.3150312578135682 -0.7405690382655727 -0.3184322030231178 -0.7322705255236064 C -0.31992538483489785 -0.7375482695311424 -0.3213807210247204 -0.7428070907276991 -0.32279821159258515 -0.7480469891132775 C -0.3399784037057728 -0.7132169751235198 -0.35258615658427017 -0.6757188447857543 -0.35560520506315696 -0.6368169859244723 C -0.35571874192902975 -0.6299583270724365 -0.3504134738327974 -0.6241215000132552 -0.3507953705634602 -0.6171183396955635 C -0.35066119063106527 -0.5842545777920554 -0.3415421159948373 -0.4848943378535746 -0.3109232875756297 -0.4700622945572992 C -0.3120947816007704 -0.46836440233584 -0.3144119658178991 -0.4650202255592262 -0.31556797754314825 -0.46335329793755053 C -0.37557737192348617 -0.5073952803628863 -0.3703908014597572 -0.6279198242533588 -0.3508779428295493 -0.6930486991312286 Z" fill="#0a232c" transform="matrix(1,0,0,1,0,0)" fill-rule="nonzero"></path></g><g clip-path="url(#SvgjsClipPath9343922b37688-4d03-491e-acd3-ba29267fc866)"><path d=" M -0.32279305082595444 -0.748046989113277 C -0.3213824412802637 -0.7427967691944379 -0.3199271050904412 -0.7375379479978805 -0.3184270422564871 -0.7322705255236062 C -0.3410673254648242 -0.6849669385877464 -0.3498767541032175 -0.6328483563855587 -0.3484472217465481 -0.5806730057504352 C -0.3524622981851362 -0.5924911613344543 -0.3505115283987783 -0.6049286089141426 -0.3507902097968295 -0.6171183396955631 C -0.3504083130661668 -0.6241215000132547 -0.35571358116239904 -0.6299583270724365 -0.35560004429652625 -0.6368169859244719 C -0.35257583505100876 -0.6757188447857541 -0.3399732429391421 -0.7132169751235196 -0.32279305082595444 -0.748046989113277 Z" fill="#072237" transform="matrix(1,0,0,1,0,0)" fill-rule="nonzero"></path></g><g clip-path="url(#SvgjsClipPath9343922b37688-4d03-491e-acd3-ba29267fc866)"><path d=" M -0.90769369766892 -0.7423288596865989 C -0.843447313884879 -0.6315994508609595 -0.7043956177906383 -0.6075554391291058 -0.600628083149646 -0.5463074607574296 C -0.3944193308917193 -0.4489805628713961 -0.1929275193341392 -0.3417037069216122 0.01397277565228483 -0.24590439595822922 C 0.07422472606426 -0.2209830538991775 0.14361639417898553 -0.22649475266063268 0.19821214436384926 -0.2625272252753148 C 0.20402015239141902 -0.25800189178631516 0.21045153983193632 -0.2543394773708636 0.21730698089698064 -0.25165348998469117 C 0.21911840998431276 -0.23294571094885308 0.22133237886883006 -0.22943122887343037 0.2009473506780547 -0.22552968930071504 C 0.20752816557766918 -0.22378050287804374 0.21392322503058148 -0.22139531854155203 0.22004218721118607 -0.21840783135052044 C -0.022937027289594902 -0.10985110527635289 -0.2568126494540396 -0.31536315403915216 -0.4748602003625078 -0.4018576027676066 C -0.625957125772513 -0.47971808892310697 -0.7827566983093045 -0.54747379401594 -0.9298282257474605 -0.6327399802863172 C -0.9910916864190286 -0.6704135766895225 -0.9647046866368933 -0.7143265399490939 -0.909334821457443 -0.7384892493134505 C -0.9089064778271054 -0.7394543126733681 -0.9081065589993661 -0.7413637963266813 -0.90769369766892 -0.7423288596865989 Z" fill="#c2c7cb" transform="matrix(1,0,0,1,0,0)" fill-rule="nonzero"></path></g><g clip-path="url(#SvgjsClipPath9343922b37688-4d03-491e-acd3-ba29267fc866)"><path d=" M 0.5042352840237468 -0.4479587310785422 C 0.6195680966838598 -0.5182019256873127 0.7346686748455974 -0.5888476600932679 0.8486235628153466 -0.6612377336203579 C 0.9438190640829521 -0.6152346598754035 0.8709748430923717 -0.5675646585087726 0.8124723925681615 -0.5354698508332201 C 0.6170289995016168 -0.42702150085829493 0.423603466187627 -0.3134639919190998 0.22153364876742188 -0.21773177092191442 C 0.2149475112125393 -0.2210041160601519 0.20805348956443692 -0.22361616889623015 0.2009525114446845 -0.22552968930071504 C 0.22136850423524368 -0.22942606810679989 0.21911324921768183 -0.23299215784852745 0.21731214166361068 -0.2516534899846903 C 0.21045670059856636 -0.25433947737086315 0.20402531315804906 -0.2580018917863147 0.1982173051304793 -0.2625272252753139 C 0.3012932970429748 -0.3225985488552192 0.4030636149979342 -0.38478062598703056 0.5042352840237468 -0.4479587310785422 Z" fill="#c2c7cb" transform="matrix(1,0,0,1,0,0)" fill-rule="nonzero"></path></g></g></g></g><defs><clipPath id="SvgjsClipPath93441"><path d=" M -0.9650040111014669 -2.344024391152177 h 1.9300080222029339 v 2.156524391152177 h -1.9300080222029339 Z"></path></clipPath><clipPath id="SvgjsClipPath9343922b37688-4d03-491e-acd3-ba29267fc866"><path d=" M -0.9650040111014669 -2.344024391152177 L 0.9650040111014669 -2.344024391152177 L 0.9650040111014669 -0.1875 L -0.9650040111014669 -0.1875 Z"></path></clipPath></defs></svg>